<svg width="32" height="32" viewBox="0 0 32 32" fill="none" xmlns="http://www.w3.org/2000/svg">
<g clip-path="url(#clip0_2696_359)">
<g clip-path="url(#clip1_2696_359)">
<path d="M1.71387 19.9999C1.71387 20.3155 1.96973 20.5714 2.2853 20.5714H29.7139C30.0294 20.5714 30.2853 20.3155 30.2853 19.9999V2.28564H1.71387V19.9999Z" fill="white"/>
<path d="M31.4286 0H0.571429C0.255859 0 0 0.255859 0 0.571429C0 0.886998 0.255859 1.14286 0.571429 1.14286H31.4286C31.7441 1.14286 32 0.886998 32 0.571429C32 0.255859 31.7441 0 31.4286 0Z" fill="white"/>
<path d="M20.571 29.7144H16.571V22.8572H17.1424C17.458 22.8572 17.7139 22.6014 17.7139 22.2858V21.7144H14.2853V22.2858C14.2853 22.6014 14.5412 22.8572 14.8567 22.8572H15.4282V29.7144H11.4282C10.4814 29.7144 9.71387 30.4819 9.71387 31.4286V32.0001H22.2853V31.4286C22.2853 30.4819 21.5177 29.7144 20.571 29.7144Z" fill="white"/>
</g>
</g>
<defs>
<clipPath id="clip0_2696_359">
<rect width="32" height="32" fill="white"/>
</clipPath>
<clipPath id="clip1_2696_359">
<rect width="32" height="32" fill="white"/>
</clipPath>
</defs>
</svg>
